<mxfile host="app.diagrams.net" modified="2023-08-14T08:51:15.792Z" agent="Mozilla/5.0 (Windows NT 10.0; Win64; x64) AppleWebKit/537.36 (KHTML, like Gecko) Chrome/115.0.0.0 Safari/537.36" etag="3JfMVAUIKjtB7eCecuhF" version="21.6.8" type="github">
  <diagram id="C5RBs43oDa-KdzZeNtuy" name="Page-1">
    <mxGraphModel dx="989" dy="545" grid="1" gridSize="10" guides="1" tooltips="1" connect="1" arrows="1" fold="1" page="1" pageScale="1" pageWidth="827" pageHeight="1169" math="0" shadow="0">
      <root>
        <mxCell id="WIyWlLk6GJQsqaUBKTNV-0" />
        <mxCell id="WIyWlLk6GJQsqaUBKTNV-1" parent="WIyWlLk6GJQsqaUBKTNV-0" />
        <mxCell id="WIyWlLk6GJQsqaUBKTNV-5" value="통과" style="edgeStyle=orthogonalEdgeStyle;rounded=0;html=1;jettySize=auto;orthogonalLoop=1;fontSize=11;endArrow=block;endFill=0;endSize=8;strokeWidth=1;shadow=0;labelBackgroundColor=none;" parent="WIyWlLk6GJQsqaUBKTNV-1" source="WIyWlLk6GJQsqaUBKTNV-6" target="WIyWlLk6GJQsqaUBKTNV-7" edge="1">
          <mxGeometry y="10" relative="1" as="geometry">
            <mxPoint as="offset" />
          </mxGeometry>
        </mxCell>
        <mxCell id="WIyWlLk6GJQsqaUBKTNV-6" value="URL 검증&lt;br&gt;(css, js)" style="rhombus;whiteSpace=wrap;html=1;shadow=0;fontFamily=Helvetica;fontSize=12;align=center;strokeWidth=1;spacing=6;spacingTop=-4;" parent="WIyWlLk6GJQsqaUBKTNV-1" vertex="1">
          <mxGeometry x="170" y="176" width="100" height="80" as="geometry" />
        </mxCell>
        <mxCell id="WIyWlLk6GJQsqaUBKTNV-7" value="Filter 통과" style="rounded=1;whiteSpace=wrap;html=1;fontSize=12;glass=0;strokeWidth=1;shadow=0;" parent="WIyWlLk6GJQsqaUBKTNV-1" vertex="1">
          <mxGeometry x="320" y="196" width="120" height="40" as="geometry" />
        </mxCell>
        <mxCell id="cnrDQwZDW4YPoAXzg6WE-2" value="Client 정보 저장&lt;br&gt;객체 생성&amp;amp;초기화" style="rounded=1;whiteSpace=wrap;html=1;fontSize=12;glass=0;strokeWidth=1;shadow=0;" vertex="1" parent="WIyWlLk6GJQsqaUBKTNV-1">
          <mxGeometry x="160" y="280" width="120" height="40" as="geometry" />
        </mxCell>
        <mxCell id="cnrDQwZDW4YPoAXzg6WE-3" value="continueUrl 설정" style="rounded=1;whiteSpace=wrap;html=1;fontSize=12;glass=0;strokeWidth=1;shadow=0;" vertex="1" parent="WIyWlLk6GJQsqaUBKTNV-1">
          <mxGeometry x="160" y="340" width="120" height="40" as="geometry" />
        </mxCell>
        <mxCell id="cnrDQwZDW4YPoAXzg6WE-4" value="kyobo-status 설정" style="rounded=1;whiteSpace=wrap;html=1;fontSize=12;glass=0;strokeWidth=1;shadow=0;" vertex="1" parent="WIyWlLk6GJQsqaUBKTNV-1">
          <mxGeometry x="160" y="400" width="120" height="40" as="geometry" />
        </mxCell>
        <mxCell id="cnrDQwZDW4YPoAXzg6WE-5" value="자동 로그인&lt;br&gt;여부 설정" style="rounded=1;whiteSpace=wrap;html=1;fontSize=12;glass=0;strokeWidth=1;shadow=0;" vertex="1" parent="WIyWlLk6GJQsqaUBKTNV-1">
          <mxGeometry x="160" y="460" width="120" height="40" as="geometry" />
        </mxCell>
        <mxCell id="cnrDQwZDW4YPoAXzg6WE-6" value="쿠키 처리&amp;nbsp;&lt;br&gt;(추가/삭제,&lt;br&gt;kyobo-status 쿠키&lt;br&gt;처리/추가 )" style="rounded=1;whiteSpace=wrap;html=1;fontSize=12;glass=0;strokeWidth=1;shadow=0;" vertex="1" parent="WIyWlLk6GJQsqaUBKTNV-1">
          <mxGeometry x="160" y="640" width="120" height="75" as="geometry" />
        </mxCell>
        <mxCell id="cnrDQwZDW4YPoAXzg6WE-7" value="Next Filter Call" style="rounded=1;whiteSpace=wrap;html=1;fontSize=12;glass=0;strokeWidth=1;shadow=0;" vertex="1" parent="WIyWlLk6GJQsqaUBKTNV-1">
          <mxGeometry x="160" y="520" width="120" height="40" as="geometry" />
        </mxCell>
        <mxCell id="cnrDQwZDW4YPoAXzg6WE-8" value="access/refresh token&amp;nbsp;&lt;br&gt;쿠키 저장" style="rounded=1;whiteSpace=wrap;html=1;fontSize=12;glass=0;strokeWidth=1;shadow=0;" vertex="1" parent="WIyWlLk6GJQsqaUBKTNV-1">
          <mxGeometry x="160" y="580" width="120" height="40" as="geometry" />
        </mxCell>
        <mxCell id="cnrDQwZDW4YPoAXzg6WE-10" value="Start" style="ellipse;whiteSpace=wrap;html=1;" vertex="1" parent="WIyWlLk6GJQsqaUBKTNV-1">
          <mxGeometry x="170" y="120" width="100" height="35" as="geometry" />
        </mxCell>
        <mxCell id="cnrDQwZDW4YPoAXzg6WE-14" value="" style="rounded=0;html=1;jettySize=auto;orthogonalLoop=1;fontSize=11;endArrow=block;endFill=0;endSize=8;strokeWidth=1;shadow=0;labelBackgroundColor=none;edgeStyle=orthogonalEdgeStyle;exitX=0.5;exitY=1;exitDx=0;exitDy=0;entryX=0.5;entryY=0;entryDx=0;entryDy=0;" edge="1" parent="WIyWlLk6GJQsqaUBKTNV-1" source="cnrDQwZDW4YPoAXzg6WE-10" target="WIyWlLk6GJQsqaUBKTNV-6">
          <mxGeometry y="20" relative="1" as="geometry">
            <mxPoint as="offset" />
            <mxPoint x="230" y="250" as="sourcePoint" />
            <mxPoint x="220" y="160" as="targetPoint" />
          </mxGeometry>
        </mxCell>
        <mxCell id="cnrDQwZDW4YPoAXzg6WE-15" value="" style="rounded=0;html=1;jettySize=auto;orthogonalLoop=1;fontSize=11;endArrow=block;endFill=0;endSize=8;strokeWidth=1;shadow=0;labelBackgroundColor=none;edgeStyle=orthogonalEdgeStyle;exitX=0.5;exitY=1;exitDx=0;exitDy=0;entryX=0.5;entryY=0;entryDx=0;entryDy=0;" edge="1" parent="WIyWlLk6GJQsqaUBKTNV-1" source="cnrDQwZDW4YPoAXzg6WE-2" target="cnrDQwZDW4YPoAXzg6WE-3">
          <mxGeometry y="20" relative="1" as="geometry">
            <mxPoint as="offset" />
            <mxPoint x="230" y="130" as="sourcePoint" />
            <mxPoint x="230" y="170" as="targetPoint" />
          </mxGeometry>
        </mxCell>
        <mxCell id="cnrDQwZDW4YPoAXzg6WE-16" value="" style="edgeStyle=orthogonalEdgeStyle;rounded=0;html=1;jettySize=auto;orthogonalLoop=1;fontSize=11;endArrow=block;endFill=0;endSize=8;strokeWidth=1;shadow=0;labelBackgroundColor=none;exitX=0.5;exitY=1;exitDx=0;exitDy=0;entryX=0.999;entryY=0.471;entryDx=0;entryDy=0;entryPerimeter=0;" edge="1" parent="WIyWlLk6GJQsqaUBKTNV-1" source="WIyWlLk6GJQsqaUBKTNV-7" target="cnrDQwZDW4YPoAXzg6WE-25">
          <mxGeometry y="10" relative="1" as="geometry">
            <mxPoint as="offset" />
            <mxPoint x="280" y="210" as="sourcePoint" />
            <mxPoint x="280" y="750" as="targetPoint" />
          </mxGeometry>
        </mxCell>
        <mxCell id="cnrDQwZDW4YPoAXzg6WE-17" value="" style="rounded=0;html=1;jettySize=auto;orthogonalLoop=1;fontSize=11;endArrow=block;endFill=0;endSize=8;strokeWidth=1;shadow=0;labelBackgroundColor=none;edgeStyle=orthogonalEdgeStyle;entryX=0.5;entryY=0;entryDx=0;entryDy=0;" edge="1" parent="WIyWlLk6GJQsqaUBKTNV-1" target="cnrDQwZDW4YPoAXzg6WE-4">
          <mxGeometry y="20" relative="1" as="geometry">
            <mxPoint as="offset" />
            <mxPoint x="220" y="380" as="sourcePoint" />
            <mxPoint x="230" y="350" as="targetPoint" />
          </mxGeometry>
        </mxCell>
        <mxCell id="cnrDQwZDW4YPoAXzg6WE-18" value="" style="rounded=0;html=1;jettySize=auto;orthogonalLoop=1;fontSize=11;endArrow=block;endFill=0;endSize=8;strokeWidth=1;shadow=0;labelBackgroundColor=none;edgeStyle=orthogonalEdgeStyle;entryX=0.5;entryY=0;entryDx=0;entryDy=0;" edge="1" parent="WIyWlLk6GJQsqaUBKTNV-1" target="cnrDQwZDW4YPoAXzg6WE-5">
          <mxGeometry y="20" relative="1" as="geometry">
            <mxPoint as="offset" />
            <mxPoint x="220" y="440" as="sourcePoint" />
            <mxPoint x="230" y="410" as="targetPoint" />
          </mxGeometry>
        </mxCell>
        <mxCell id="cnrDQwZDW4YPoAXzg6WE-19" value="" style="rounded=0;html=1;jettySize=auto;orthogonalLoop=1;fontSize=11;endArrow=block;endFill=0;endSize=8;strokeWidth=1;shadow=0;labelBackgroundColor=none;edgeStyle=orthogonalEdgeStyle;entryX=0.5;entryY=0;entryDx=0;entryDy=0;" edge="1" parent="WIyWlLk6GJQsqaUBKTNV-1" target="cnrDQwZDW4YPoAXzg6WE-7">
          <mxGeometry y="20" relative="1" as="geometry">
            <mxPoint as="offset" />
            <mxPoint x="220" y="500" as="sourcePoint" />
            <mxPoint x="230" y="470" as="targetPoint" />
          </mxGeometry>
        </mxCell>
        <mxCell id="cnrDQwZDW4YPoAXzg6WE-20" value="" style="rounded=0;html=1;jettySize=auto;orthogonalLoop=1;fontSize=11;endArrow=block;endFill=0;endSize=8;strokeWidth=1;shadow=0;labelBackgroundColor=none;edgeStyle=orthogonalEdgeStyle;entryX=0.5;entryY=0;entryDx=0;entryDy=0;" edge="1" parent="WIyWlLk6GJQsqaUBKTNV-1" target="cnrDQwZDW4YPoAXzg6WE-8">
          <mxGeometry y="20" relative="1" as="geometry">
            <mxPoint as="offset" />
            <mxPoint x="220" y="560" as="sourcePoint" />
            <mxPoint x="230" y="530" as="targetPoint" />
          </mxGeometry>
        </mxCell>
        <mxCell id="cnrDQwZDW4YPoAXzg6WE-21" value="" style="rounded=0;html=1;jettySize=auto;orthogonalLoop=1;fontSize=11;endArrow=block;endFill=0;endSize=8;strokeWidth=1;shadow=0;labelBackgroundColor=none;edgeStyle=orthogonalEdgeStyle;entryX=0.494;entryY=-0.01;entryDx=0;entryDy=0;entryPerimeter=0;exitX=0.493;exitY=0.998;exitDx=0;exitDy=0;exitPerimeter=0;" edge="1" parent="WIyWlLk6GJQsqaUBKTNV-1" source="cnrDQwZDW4YPoAXzg6WE-8" target="cnrDQwZDW4YPoAXzg6WE-6">
          <mxGeometry y="20" relative="1" as="geometry">
            <mxPoint as="offset" />
            <mxPoint x="230" y="570" as="sourcePoint" />
            <mxPoint x="230" y="590" as="targetPoint" />
          </mxGeometry>
        </mxCell>
        <mxCell id="cnrDQwZDW4YPoAXzg6WE-22" value="" style="rounded=0;html=1;jettySize=auto;orthogonalLoop=1;fontSize=11;endArrow=block;endFill=0;endSize=8;strokeWidth=1;shadow=0;labelBackgroundColor=none;edgeStyle=orthogonalEdgeStyle;entryX=0.498;entryY=-0.028;entryDx=0;entryDy=0;exitX=0.497;exitY=0.989;exitDx=0;exitDy=0;exitPerimeter=0;entryPerimeter=0;" edge="1" parent="WIyWlLk6GJQsqaUBKTNV-1" source="cnrDQwZDW4YPoAXzg6WE-6" target="cnrDQwZDW4YPoAXzg6WE-25">
          <mxGeometry y="20" relative="1" as="geometry">
            <mxPoint as="offset" />
            <mxPoint x="229" y="630" as="sourcePoint" />
            <mxPoint x="220" y="730" as="targetPoint" />
          </mxGeometry>
        </mxCell>
        <mxCell id="cnrDQwZDW4YPoAXzg6WE-24" value="" style="rounded=0;html=1;jettySize=auto;orthogonalLoop=1;fontSize=11;endArrow=block;endFill=0;endSize=8;strokeWidth=1;shadow=0;labelBackgroundColor=none;edgeStyle=orthogonalEdgeStyle;entryX=0.5;entryY=0;entryDx=0;entryDy=0;exitX=0.5;exitY=1;exitDx=0;exitDy=0;" edge="1" parent="WIyWlLk6GJQsqaUBKTNV-1" source="WIyWlLk6GJQsqaUBKTNV-6" target="cnrDQwZDW4YPoAXzg6WE-2">
          <mxGeometry y="20" relative="1" as="geometry">
            <mxPoint as="offset" />
            <mxPoint x="220" y="260" as="sourcePoint" />
            <mxPoint x="230" y="276" as="targetPoint" />
          </mxGeometry>
        </mxCell>
        <mxCell id="cnrDQwZDW4YPoAXzg6WE-25" value="End" style="ellipse;whiteSpace=wrap;html=1;" vertex="1" parent="WIyWlLk6GJQsqaUBKTNV-1">
          <mxGeometry x="170" y="730" width="100" height="35" as="geometry" />
        </mxCell>
      </root>
    </mxGraphModel>
  </diagram>
</mxfile>
